# xmcd
#
# Track frame offsets:
#	150
#	12713
#	24197
#	39023
#	56214
#	70204
#	89583
#	101412
#	116632
#	129905
#	142856
#	157989
#	170506
#	184939
#	199936
#	214952
#	226775
#	245579
#	259957
#	272048
#
# Disc length: 3793 seconds
#
# Revision: 0
# Processed by: cddbd v1.4PL0 Copyright (c) Steve Scherf et al.
# Submitted via: dBpowerAMP V4.0
#
DISCID=1a0ecf14
DTITLE=disque6 - CINE
DYEAR=2001
DGENRE=Chanson
TTITLE0=il pleurait M.Chevalier
TTITLE1=c'est la vie qui va Charles Trenet
TTITLE2=c'est la saison d'amour Yvonne Printemps
TTITLE3=le nez de Cléopatre  Ray Ventura
TTITLE4=tiens tiens tiens  Ray Ventura
TTITLE5=comme de bien entendu  Arletty  Andrex  Michel Simon
TTITLE6=Dédé de Montmartre  Albert Préjean
TTITLE7=le paradis perdu  Lucienne Delyle
TTITLE8=toi que mon coeur appelle  Tino Rossi
TTITLE9=la romance de Paris  Charles Trenet
TTITLE10=le premier rendez-vous  Danielle Darieux
TTITLE11=un coin tout bleu  Edith Piaf
TTITLE12=Mademoiselle Swing  Irène de Trébert
TTITLE13=deux ballades médiévales  Jacques Jansen
TTITLE14=le chant du Gardian  Tino Rossi
TTITLE15=avec son tralala  Suzy Delair
TTITLE16=les trois cloches  Edith Piaf et les Compagnons
TTITLE17=Maria de Bahia  Ray Ventura
TTITLE18=Armstrong, Duke Ellington, Cab calloway  Ray Ventura Henri Salvador
TTITLE19=à St Germain-des-Prés  Jacques Hélian
EXTD=
EXTT0=
EXTT1=
EXTT2=
EXTT3=
EXTT4=
EXTT5=
EXTT6=
EXTT7=
EXTT8=
EXTT9=
EXTT10=
EXTT11=
EXTT12=
EXTT13=
EXTT14=
EXTT15=
EXTT16=
EXTT17=
EXTT18=
EXTT19=
PLAYORDER=
